<svg width="24.000000" height="24.000000" viewBox="0 0 24 24" fill="none" xmlns="http://www.w3.org/2000/svg" xmlns:xlink="http://www.w3.org/1999/xlink">
	<desc>
			Created with Pixso.
	</desc>
	<defs/>
	<path id="Vector" d="M18 2L18 4M6 2L6 4" stroke="#737373" stroke-opacity="1.000000" stroke-width="1.500000" stroke-linejoin="round" stroke-linecap="round"/>
	<path id="Vector" d="M11.99 13L12 13M11.99 17L12 17M15.99 13L16 13M8 13L8 13M8 17L8 17" stroke="#737373" stroke-opacity="1.000000" stroke-width="2.000000" stroke-linejoin="round" stroke-linecap="round"/>
	<path id="Vector" d="M3.5 8L20.5 8" stroke="#737373" stroke-opacity="1.000000" stroke-width="1.500000" stroke-linejoin="round" stroke-linecap="round"/>
	<path id="Vector" d="M3.75 4.35C5 3 7.01 3 11.05 3L12.95 3C16.98 3 18.99 3 20.24 4.35C21.5 5.7 21.5 7.88 21.5 12.24L21.5 12.75C21.5 17.11 21.5 19.29 20.24 20.64C18.99 22 16.98 22 12.95 22L11.05 22C7.01 22 5 22 3.75 20.64C2.5 19.29 2.5 17.11 2.5 12.75L2.5 12.24C2.5 7.88 2.5 5.7 3.75 4.35Z" stroke="#737373" stroke-opacity="1.000000" stroke-width="1.500000" stroke-linejoin="round"/>
	<path id="Vector" d="M3 8L21 8" stroke="#737373" stroke-opacity="1.000000" stroke-width="1.500000" stroke-linejoin="round" stroke-linecap="round"/>
</svg>
