<svg width="24.000000" height="24.000000" viewBox="0 0 24 24" fill="none" xmlns="http://www.w3.org/2000/svg" xmlns:xlink="http://www.w3.org/1999/xlink">
	<desc>
			Created with Pixso.
	</desc>
	<defs/>
	<path id="Vector" d="M12 22C6.47 22 2 17.52 2 12C2 6.47 6.47 2 12 2C17.52 2 22 6.47 22 12C22 17.52 17.52 22 12 22Z" stroke="#737373" stroke-opacity="1.000000" stroke-width="1.500000"/>
	<path id="Vector" d="M7.5 17C9.83 14.55 14.14 14.44 16.5 17M11.99 12C10.6 12 9.48 10.88 9.48 9.5C9.48 8.11 10.6 7 11.99 7C13.37 7 14.49 8.11 14.49 9.5C14.49 10.88 13.37 12 11.99 12Z" stroke="#737373" stroke-opacity="1.000000" stroke-width="1.500000" stroke-linecap="round"/>
</svg>
